<svg xmlns="http://www.w3.org/2000/svg" width="32" height="32"><defs><linearGradient id="a" x1="100%" x2="0%" y1="0%" y2="0%"><stop offset="0%" stop-color="#FFA28B"/><stop offset="50.261%" stop-color="#7EE787"/><stop offset="100%" stop-color="#939AFF"/></linearGradient></defs><g fill="none" fill-rule="evenodd"><path fill="#161B22" d="M4 0h24a4 4 0 0 1 4 4v24a4 4 0 0 1-4 4H4a4 4 0 0 1-4-4V4a4 4 0 0 1 4-4Z"/><path fill="url(#a)" d="M15.004 3.413 3.413 15.003c-.55.551-.55 1.443 0 1.993l11.59 11.591c.551.55 1.443.55 1.993 0l11.591-11.59c.55-.551.55-1.443 0-1.993L16.997 3.413a1.409 1.409 0 0 0-1.993 0Z"/><path fill="#FFF" opacity=".9" d="m16 5 11 11-11 11L5 16z"/></g></svg>